<svg width="32" height="32" viewBox="0 0 32 32" fill="none" xmlns="http://www.w3.org/2000/svg">
  <rect width="32" height="32" fill="white"/>
  <!-- Сложный паттерн точек как в оригинальном favicon Reuters -->
  <g fill="#FF6600">
    <!-- Центральная точка -->
    <circle cx="16" cy="16" r="1" fill="#FF6600"/>
    
    <!-- Первое кольцо -->
    <circle cx="16" cy="12" r="0.8" fill="#FF6600"/>
    <circle cx="20" cy="16" r="0.8" fill="#FF6600"/>
    <circle cx="16" cy="20" r="0.8" fill="#FF6600"/>
    <circle cx="12" cy="16" r="0.8" fill="#FF6600"/>
    
    <!-- Диагонали первого кольца -->
    <circle cx="18.5" cy="13.5" r="0.6" fill="#FF6600"/>
    <circle cx="18.5" cy="18.5" r="0.6" fill="#FF6600"/>
    <circle cx="13.5" cy="18.5" r="0.6" fill="#FF6600"/>
    <circle cx="13.5" cy="13.5" r="0.6" fill="#FF6600"/>
    
    <!-- Второе кольцо -->
    <circle cx="16" cy="8" r="1.2" fill="#FF6600"/>
    <circle cx="24" cy="16" r="1.2" fill="#FF6600"/>
    <circle cx="16" cy="24" r="1.2" fill="#FF6600"/>
    <circle cx="8" cy="16" r="1.2" fill="#FF6600"/>
    
    <!-- Диагонали второго кольца -->
    <circle cx="22" cy="10" r="1" fill="#FF6600"/>
    <circle cx="22" cy="22" r="1" fill="#FF6600"/>
    <circle cx="10" cy="22" r="1" fill="#FF6600"/>
    <circle cx="10" cy="10" r="1" fill="#FF6600"/>
    
    <!-- Третье кольцо (крайние точки) -->
    <circle cx="16" cy="4" r="1.5" fill="#FF6600"/>
    <circle cx="28" cy="16" r="1.5" fill="#FF6600"/>
    <circle cx="16" cy="28" r="1.5" fill="#FF6600"/>
    <circle cx="4" cy="16" r="1.5" fill="#FF6600"/>
    
    <!-- Диагонали третьего кольца -->
    <circle cx="25" cy="7" r="1.3" fill="#FF6600"/>
    <circle cx="25" cy="25" r="1.3" fill="#FF6600"/>
    <circle cx="7" cy="25" r="1.3" fill="#FF6600"/>
    <circle cx="7" cy="7" r="1.3" fill="#FF6600"/>
    
    <!-- Дополнительные промежуточные точки -->
    <circle cx="16" cy="10" r="0.4" fill="#FF6600"/>
    <circle cx="22" cy="16" r="0.4" fill="#FF6600"/>
    <circle cx="16" cy="22" r="0.4" fill="#FF6600"/>
    <circle cx="10" cy="16" r="0.4" fill="#FF6600"/>
    
    <!-- Мелкие точки для заполнения -->
    <circle cx="19" cy="11" r="0.3" fill="#FF6600"/>
    <circle cx="21" cy="13" r="0.3" fill="#FF6600"/>
    <circle cx="21" cy="19" r="0.3" fill="#FF6600"/>
    <circle cx="19" cy="21" r="0.3" fill="#FF6600"/>
    <circle cx="13" cy="21" r="0.3" fill="#FF6600"/>
    <circle cx="11" cy="19" r="0.3" fill="#FF6600"/>
    <circle cx="11" cy="13" r="0.3" fill="#FF6600"/>
    <circle cx="13" cy="11" r="0.3" fill="#FF6600"/>
    
    <!-- Очень мелкие точки -->
    <circle cx="18" cy="9" r="0.2" fill="#FF6600"/>
    <circle cx="23" cy="14" r="0.2" fill="#FF6600"/>
    <circle cx="18" cy="23" r="0.2" fill="#FF6600"/>
    <circle cx="9" cy="18" r="0.2" fill="#FF6600"/>
    <circle cx="14" cy="9" r="0.2" fill="#FF6600"/>
    <circle cx="23" cy="18" r="0.2" fill="#FF6600"/>
    <circle cx="14" cy="23" r="0.2" fill="#FF6600"/>
    <circle cx="9" cy="14" r="0.2" fill="#FF6600"/>
    
    <!-- Крайние углы -->
    <circle cx="6" cy="6" r="0.8" fill="#FF6600"/>
    <circle cx="26" cy="6" r="0.8" fill="#FF6600"/>
    <circle cx="26" cy="26" r="0.8" fill="#FF6600"/>
    <circle cx="6" cy="26" r="0.8" fill="#FF6600"/>
  </g>
</svg>