<svg width="512" height="512" viewBox="0 0 512 512" fill="none" xmlns="http://www.w3.org/2000/svg">
  <rect width="512" height="512" fill="white"/>
  <!-- Сложный паттерн точек Reuters в высоком разрешении -->
  <g fill="#FF6600">
    <!-- Центральная точка -->
    <circle cx="256" cy="256" r="8" fill="#FF6600"/>
    
    <!-- Первое кольцо -->
    <circle cx="256" cy="220" r="6" fill="#FF6600"/>
    <circle cx="292" cy="256" r="6" fill="#FF6600"/>
    <circle cx="256" cy="292" r="6" fill="#FF6600"/>
    <circle cx="220" cy="256" r="6" fill="#FF6600"/>
    
    <!-- Диагонали первого кольца -->
    <circle cx="276" cy="236" r="5" fill="#FF6600"/>
    <circle cx="276" cy="276" r="5" fill="#FF6600"/>
    <circle cx="236" cy="276" r="5" fill="#FF6600"/>
    <circle cx="236" cy="236" r="5" fill="#FF6600"/>
    
    <!-- Второе кольцо -->
    <circle cx="256" cy="180" r="10" fill="#FF6600"/>
    <circle cx="332" cy="256" r="10" fill="#FF6600"/>
    <circle cx="256" cy="332" r="10" fill="#FF6600"/>
    <circle cx="180" cy="256" r="10" fill="#FF6600"/>
    
    <!-- Диагонали второго кольца -->
    <circle cx="305" cy="207" r="8" fill="#FF6600"/>
    <circle cx="305" cy="305" r="8" fill="#FF6600"/>
    <circle cx="207" cy="305" r="8" fill="#FF6600"/>
    <circle cx="207" cy="207" r="8" fill="#FF6600"/>
    
    <!-- Третье кольцо -->
    <circle cx="256" cy="140" r="12" fill="#FF6600"/>
    <circle cx="372" cy="256" r="12" fill="#FF6600"/>
    <circle cx="256" cy="372" r="12" fill="#FF6600"/>
    <circle cx="140" cy="256" r="12" fill="#FF6600"/>
    
    <!-- Диагонали третьего кольца -->
    <circle cx="340" cy="172" r="10" fill="#FF6600"/>
    <circle cx="340" cy="340" r="10" fill="#FF6600"/>
    <circle cx="172" cy="340" r="10" fill="#FF6600"/>
    <circle cx="172" cy="172" r="10" fill="#FF6600"/>
    
    <!-- Четвертое кольцо (крайние точки) -->
    <circle cx="256" cy="100" r="15" fill="#FF6600"/>
    <circle cx="412" cy="256" r="15" fill="#FF6600"/>
    <circle cx="256" cy="412" r="15" fill="#FF6600"/>
    <circle cx="100" cy="256" r="15" fill="#FF6600"/>
    
    <!-- Диагонали четвертого кольца -->
    <circle cx="368" cy="144" r="13" fill="#FF6600"/>
    <circle cx="368" cy="368" r="13" fill="#FF6600"/>
    <circle cx="144" cy="368" r="13" fill="#FF6600"/>
    <circle cx="144" cy="144" r="13" fill="#FF6600"/>
    
    <!-- Промежуточные точки -->
    <circle cx="256" cy="200" r="3" fill="#FF6600"/>
    <circle cx="312" cy="256" r="3" fill="#FF6600"/>
    <circle cx="256" cy="312" r="3" fill="#FF6600"/>
    <circle cx="200" cy="256" r="3" fill="#FF6600"/>
    
    <!-- Дополнительные мелкие точки для создания спирального эффекта -->
    <circle cx="280" cy="190" r="4" fill="#FF6600"/>
    <circle cx="322" cy="232" r="4" fill="#FF6600"/>
    <circle cx="322" cy="280" r="4" fill="#FF6600"/>
    <circle cx="280" cy="322" r="4" fill="#FF6600"/>
    <circle cx="232" cy="322" r="4" fill="#FF6600"/>
    <circle cx="190" cy="280" r="4" fill="#FF6600"/>
    <circle cx="190" cy="232" r="4" fill="#FF6600"/>
    <circle cx="232" cy="190" r="4" fill="#FF6600"/>
    
    <!-- Очень мелкие точки -->
    <circle cx="290" cy="170" r="2" fill="#FF6600"/>
    <circle cx="342" cy="222" r="2" fill="#FF6600"/>
    <circle cx="342" cy="290" r="2" fill="#FF6600"/>
    <circle cx="290" cy="342" r="2" fill="#FF6600"/>
    <circle cx="222" cy="342" r="2" fill="#FF6600"/>
    <circle cx="170" cy="290" r="2" fill="#FF6600"/>
    <circle cx="170" cy="222" r="2" fill="#FF6600"/>
    <circle cx="222" cy="170" r="2" fill="#FF6600"/>
    
    <!-- Крайние угловые точки -->
    <circle cx="120" cy="120" r="8" fill="#FF6600"/>
    <circle cx="392" cy="120" r="8" fill="#FF6600"/>
    <circle cx="392" cy="392" r="8" fill="#FF6600"/>
    <circle cx="120" cy="392" r="8" fill="#FF6600"/>
    
    <!-- Дополнительные точки по краям -->
    <circle cx="256" cy="60" r="6" fill="#FF6600"/>
    <circle cx="452" cy="256" r="6" fill="#FF6600"/>
    <circle cx="256" cy="452" r="6" fill="#FF6600"/>
    <circle cx="60" cy="256" r="6" fill="#FF6600"/>
  </g>
</svg>